####
#
# OBJ File Generated by Meshlab
#
####
# Object bunny_no_holes2.obj
#
# Vertices: 152
# Faces: 300
#
####
mtllib ./bunny_no_holes2.obj.mtl

vn 0.765994 0.501061 0.402729
v 30.735929 49.422333 12.397314
vn 0.603730 0.760537 0.238942
v -28.520554 83.676659 9.370834
vn 0.652251 0.508249 -0.562363
v 21.980957 69.516472 -5.966425
vn 0.779108 0.281807 0.559978
v 37.365910 42.133198 17.024462
vn -0.408874 -0.911260 0.049260
v -0.011111 22.087631 7.914763
vn 0.221247 -0.971954 -0.079716
v -21.018805 21.729897 7.419645
vn 0.273563 -0.211156 0.938390
v 7.157368 27.259262 28.497650
vn -0.819554 0.565935 0.089722
v -33.686283 31.080029 9.194893
vn -0.222945 0.480774 -0.848028
v -14.300038 59.373985 -23.988308
vn -0.672390 0.052040 -0.738366
v -51.423580 59.663723 -7.956351
vn 0.828649 0.207499 0.519890
v -34.444443 88.473480 19.268187
vn -0.989289 0.013366 -0.145354
v -59.965435 84.449966 10.631787
vn 0.267564 0.491672 0.828655
v 10.629569 62.886883 31.498587
vn 0.561893 -0.205372 -0.801311
v 23.214458 33.768520 -5.272071
vn 0.791620 -0.543762 -0.278678
v -41.563408 100.557838 -31.825975
vn -0.646084 0.298095 -0.702649
v -20.860725 33.727394 -5.939876
vn 0.026024 -0.969335 -0.244363
v -14.538491 22.384134 29.106337
vn -0.823971 0.226312 -0.519475
v -55.840031 91.595642 3.836957
vn 0.582458 -0.337708 -0.739389
v 15.058620 33.508320 -16.092569
vn 0.136290 -0.990071 0.034429
v 9.958454 22.020512 -9.378322
vn 0.047199 -0.936734 -0.346844
v -12.281285 25.382496 26.235357
vn 0.754887 0.499578 0.424932
v 22.694336 72.542168 18.208805
vn 0.543728 -0.214955 -0.811267
v -41.809841 91.685951 -4.898181
vn 0.133689 0.574683 0.807383
v -47.664249 95.128899 28.621954
vn -0.082371 0.994038 0.071440
v -1.457151 85.387390 9.800146
vn -0.205828 -0.978144 0.029466
v -2.542096 24.726263 11.857349
vn 0.639990 0.237429 0.730781
v -41.144970 89.812813 25.036091
vn -0.134524 0.742977 0.655658
v -5.222840 79.771484 22.630266
vn -0.460234 0.009636 -0.887745
v -14.704127 113.149040 -13.797762
vn 0.154672 -0.643900 0.749313
v -47.087704 72.089058 31.914562
vn 0.433360 0.191417 0.880658
v -34.763802 74.550812 22.317438
vn -0.751347 0.634470 0.181452
v -48.698116 116.087112 -33.439255
vn 0.296431 0.904153 -0.307631
v 8.779086 83.323761 -0.143646
vn -0.214104 0.447001 -0.868533
v -34.571465 74.928246 -9.935619
vn 0.611288 0.096157 0.785545
v -40.855453 78.382095 30.256414
vn -0.385134 0.055210 -0.921208
v -23.012455 58.139984 -15.358739
vn -0.523983 -0.700467 0.484550
v -41.376007 22.257421 27.246241
vn -0.160105 -0.235553 -0.958583
v -12.816500 28.929724 -18.308392
vn 0.250269 -0.592287 -0.765873
v 6.607945 22.746683 -14.305001
vn -0.442412 0.893450 -0.077580
v -48.919842 100.120338 -0.611014
vn -0.766859 0.616036 0.180076
v -41.260101 29.345703 23.784473
vn 0.453594 -0.607895 0.651702
v 10.485230 22.737043 27.926563
vn -0.182411 0.461371 0.868253
v -9.047743 61.051147 36.402843
vn 0.407301 0.818274 0.405628
v -44.737354 106.852379 -11.531954
vn 0.296661 0.515084 0.804165
v 11.251105 71.842415 25.007153
vn 0.373569 0.575153 -0.727767
v -31.684729 83.483376 -2.249613
vn -0.874715 -0.285603 -0.391542
v -46.251972 107.458443 -29.261185
vn -0.661631 0.661419 -0.353226
v -34.482731 105.838280 -0.904860
vn -0.795447 -0.504664 -0.335527
v -52.273956 48.733124 -1.698501
vn 0.331243 -0.893028 -0.304597
v 13.746151 22.899647 -0.255971
vn -0.445523 -0.895095 0.017721
v 3.310594 25.295729 -6.935895
vn 0.007423 0.589290 -0.807887
v -2.807467 64.792091 -15.336499
vn -0.652202 0.532153 0.539857
v -32.428795 32.997711 22.864403
vn -0.619426 0.357943 -0.698704
v -17.452818 32.478127 -15.294721
vn 0.805993 0.373988 -0.458811
v 38.926174 42.801563 1.101391
vn -0.531538 0.004208 0.847024
v -15.005248 52.945507 36.284737
vn 0.306298 -0.331282 0.892431
v 4.244316 33.767605 34.757092
vn 0.526881 -0.149500 0.836688
v 24.062075 36.392017 22.580072
vn 0.264847 0.475574 0.838860
v -23.112316 112.001259 -0.202094
vn 0.019177 0.913972 -0.405325
v -17.093695 79.022377 -5.159962
vn -0.178302 -0.165447 -0.969967
v -12.985169 45.018379 -25.308521
vn -0.299109 -0.115449 0.947209
v -9.319017 32.395782 32.621670
vn 0.008221 -0.997782 -0.066058
v 10.148165 22.263165 21.982246
vn 0.753215 0.077075 -0.653243
v 23.995718 53.219429 -10.523120
vn -0.006882 -0.999354 0.035283
v -29.926361 21.929142 10.014009
vn -0.956037 -0.187628 -0.225364
v -57.748619 70.952629 7.840274
vn -0.179698 -0.669904 0.720373
v -25.685633 22.702114 28.082819
vn -0.410119 -0.315888 -0.855580
v -46.714359 90.795685 -5.552975
vn 0.131528 -0.767766 -0.627085
v -13.405577 103.412605 -9.045307
vn 0.209457 -0.977206 -0.034598
v -14.241027 24.450705 11.384613
vn -0.346740 0.428120 0.834557
v -17.680620 34.974712 23.168861
vn -0.401613 -0.478799 -0.780679
v -34.075584 39.962505 -5.799917
vn 0.215713 -0.026528 -0.976097
v -36.549881 94.414787 -1.009021
vn 0.344632 0.380836 -0.858017
v 8.168513 59.002254 -19.102304
vn -0.104103 -0.217693 0.970450
v -28.539286 46.990448 27.424356
vn -0.616843 -0.733337 -0.285869
v -47.002476 21.818407 2.487439
vn -0.027317 0.456262 -0.889426
v -21.206190 70.790894 -12.762960
vn -0.977564 -0.085846 0.192352
v -59.319118 60.521858 12.109985
vn 0.111886 -0.846735 -0.520117
v -7.860329 21.820986 -15.438112
vn 0.258545 -0.129513 -0.957278
v -39.981781 109.356949 -40.726486
vn 0.965022 0.236914 0.112266
v -39.896458 105.388283 -22.147951
vn 0.304930 0.810572 0.499991
v 10.191161 81.918205 19.079792
vn -0.866666 -0.459244 0.194896
v -41.177540 22.089064 14.116126
vn -0.766999 -0.463496 0.443716
v -58.303707 73.387772 27.279533
vn -0.761560 -0.554528 0.335447
v -52.424202 47.625755 15.766313
vn 0.176398 0.581982 -0.793840
v 7.986984 75.953773 -10.737052
vn 0.340978 -0.091725 0.935586
v 30.064476 36.889698 21.272560
vn 0.647769 0.162456 0.744314
v 21.901840 58.346809 26.656395
vn -0.160035 0.403908 0.900693
v -36.237373 26.477001 30.395021
vn 0.333145 0.090094 0.938561
v 8.387766 52.162987 35.888763
vn -0.754094 -0.014850 -0.656599
v -55.898888 79.471123 -1.494353
vn -0.718805 0.691907 0.067701
v -45.320065 28.248037 3.395253
vn 0.127229 -0.991599 -0.023335
v -22.908072 22.356958 22.345619
vn 0.245398 0.041396 -0.968538
v -1.391083 53.297619 -23.967033
vn 0.696652 0.673822 -0.246253
v -41.089851 97.847313 -1.492696
vn -0.647277 0.641166 -0.412236
v -26.791109 28.356901 -14.584122
vn 0.040686 0.600101 0.798889
v 1.466833 66.980194 28.711891
vn -0.488213 -0.343372 0.802337
v -48.950706 69.111084 22.804777
vn 0.623296 0.766475 0.154976
v -42.357876 114.144508 -34.770798
vn -0.069548 0.747024 0.661149
v -19.466349 76.317116 19.825596
vn -0.324845 -0.250780 -0.911913
v -25.385509 22.014704 -20.534725
vn -0.387489 0.425505 0.817801
v -17.796089 29.109068 33.534184
vn -0.307813 0.147194 -0.939992
v -44.321442 74.354424 -6.413595
vn -0.694659 0.264967 -0.668761
v -37.230236 28.827391 -4.329236
vn 0.384821 -0.919357 0.081822
v 24.400497 23.562010 6.958717
vn -0.084369 0.114189 0.989870
v -36.783657 59.441704 29.589165
vn 0.376319 0.397857 -0.836716
v 15.098733 64.068542 -12.918792
vn -0.781108 -0.147437 -0.606739
v -20.305492 49.306538 -20.781441
vn -0.551581 -0.118923 0.825600
v -46.167007 57.061424 27.727621
vn 0.547066 -0.616176 -0.566609
v 32.367981 30.244555 -1.266330
vn -0.868482 0.479883 -0.124303
v -59.422173 96.810776 10.793102
vn -0.474768 -0.675923 -0.563670
v -31.630468 21.681435 -8.241505
vn -0.178335 0.275578 0.944592
v -25.635071 30.547764 25.346596
vn -0.799467 0.351793 0.486923
v -57.001347 86.527992 28.714115
vn 0.608975 0.228051 0.759699
v -19.535368 107.821373 -4.857585
vn -0.240860 0.479176 0.844024
v -14.746547 66.033936 28.566034
vn -0.008687 0.291454 0.956545
v -25.271048 67.028793 26.549425
vn -0.475299 0.445053 -0.758959
v -28.588917 28.918648 -7.783560
vn 0.777345 -0.563854 0.278934
v 36.615780 31.971592 13.311358
vn 0.759182 -0.266425 0.593853
v -9.581016 103.771500 -5.185238
vn 0.684383 0.723072 -0.093732
v 19.686745 77.436012 4.761111
vn 0.074776 -0.966865 0.244090
v -21.424864 21.687958 -14.512793
vn -0.251651 0.932176 0.260230
v -50.493279 100.237762 18.029438
vn -0.144341 -0.056723 -0.987901
v -33.630966 57.411602 -15.240288
vn 0.420500 -0.728650 0.540601
v 18.214418 25.990057 18.884218
vn -0.422107 -0.535487 -0.731491
v -42.632950 47.532665 -10.271157
vn 0.636035 0.236609 0.734490
v -31.169352 98.925789 6.582538
vn -0.923059 0.012906 -0.384442
v -49.843716 95.602356 -2.295663
vn -0.021355 -0.086841 0.995993
v -2.245976 46.914001 37.716679
vn -0.044002 0.997139 0.061457
v -11.951091 120.886047 -11.386025
vn -0.491820 -0.866965 -0.080526
v -44.311142 38.452492 7.355413
vn 0.041356 -0.948636 0.313654
v -16.793592 24.907734 -11.321550
vn -0.030078 0.957281 0.287592
v -34.942417 100.079880 7.751380
vn 0.937743 0.304072 -0.167865
v 28.861971 62.973106 2.510493
vn 0.376875 -0.720787 0.581748
v 26.233877 27.521255 17.875481
vn 0.653931 0.558436 0.510416
v -36.063278 98.722557 19.263330
vn -0.570133 -0.395760 0.719946
v -33.015820 40.520218 21.293184
vn -0.539630 0.493613 -0.682016
v -48.066730 116.909546 -35.155125
vn 0.976269 -0.213721 0.034965
v -31.509218 93.142357 4.389511
vn -0.410503 0.000876 0.911859
v -20.478075 54.332935 27.404274
vn -0.831877 -0.522831 0.186088
v -35.148285 35.920174 8.223735
vn -0.318965 -0.650208 0.689558
v -41.161598 45.039566 24.747444
vn 0.027287 -0.594893 0.803342
v -13.264563 22.713591 34.127419
vn -0.201111 0.088966 0.975520
v -51.841415 83.422386 34.095585
vn -0.071346 0.978411 0.193964
v -17.989254 80.947098 10.100415
vn -0.184939 -0.037569 -0.982032
v -29.281542 33.659729 -6.530483
vn 0.810235 0.354095 -0.467050
v 30.384451 47.912498 4.570952
vn 0.174403 -0.308263 -0.935178
v 4.144448 31.989281 -18.838791
vn -0.524836 -0.706676 -0.474507
v -46.086849 97.606483 -28.201752
vn -0.326722 -0.944212 0.041431
v 5.324419 25.407917 20.583574
vn 0.719988 -0.134345 -0.680858
v -5.640737 114.364922 -18.132929
vn 0.337235 -0.941415 0.003277
v -25.033892 24.118048 -5.034668
# 152 vertices, 0 vertices normals


usemtl material_0
vt 0.000000 0.000000
vt 1.000000 0.000000
vt 0.000000 1.000000
f 130/1/130 59/2/59 115/3/115
f 149/1/149 68/2/68 128/3/128
f 136/1/136 133/2/133 123/3/123
f 41/1/41 37/2/37 89/3/89
f 151/1/151 120/2/120 69/3/69
f 83/1/83 92/2/92 76/3/76
f 18/1/18 111/2/111 40/3/40
f 92/1/92 83/2/83 8/3/8
f 32/1/32 138/2/138 47/3/47
f 39/1/39 38/2/38 148/3/148
f 126/1/126 10/2/10 124/3/124
f 24/1/24 136/2/136 123/3/123
f 62/1/62 143/2/143 7/3/7
f 24/1/24 27/2/27 136/3/136
f 126/1/126 131/2/131 49/3/49
f 29/1/29 130/2/130 151/3/151
f 115/1/115 151/2/151 130/3/130
f 88/1/88 57/2/57 58/3/58
f 123/1/123 114/2/114 24/3/24
f 121/1/121 22/2/22 134/3/134
f 59/1/59 133/2/133 127/3/127
f 119/1/119 4/2/4 87/3/87
f 149/1/149 23/2/23 68/3/68
f 113/1/113 53/2/53 89/3/89
f 89/1/89 53/2/53 41/3/41
f 57/1/57 90/2/90 129/3/129
f 18/1/18 128/2/128 91/3/91
f 13/1/13 43/2/43 90/3/90
f 50/1/50 105/2/105 63/3/63
f 94/1/94 61/2/61 9/3/9
f 6/1/6 93/2/93 65/3/65
f 142/1/142 75/2/75 106/3/106
f 142/1/142 137/2/137 75/3/75
f 28/1/28 82/2/82 25/3/25
f 145/1/145 2/2/2 100/3/100
f 140/1/140 56/2/56 43/3/43
f 150/1/150 5/2/5 63/3/63
f 29/1/29 151/2/151 69/3/69
f 108/1/108 36/2/36 9/3/9
f 58/1/58 87/2/87 1/3/1
f 143/1/143 67/2/67 17/3/17
f 7/1/7 42/2/42 58/3/58
f 93/1/93 83/2/83 65/3/65
f 126/1/126 49/2/49 10/3/10
f 146/1/146 72/2/72 36/3/36
f 140/1/140 62/2/62 56/3/56
f 96/1/96 118/2/118 16/3/16
f 52/1/52 107/2/107 74/3/74
f 88/1/88 45/2/45 13/3/13
f 81/1/81 44/2/44 95/3/95
f 17/1/17 21/2/21 63/3/63
f 2/1/2 145/2/145 60/3/60
f 51/1/51 26/2/26 132/3/132
f 38/1/38 108/2/108 61/3/61
f 36/1/36 124/2/124 77/3/77
f 67/1/67 113/2/113 89/3/89
f 140/1/140 116/2/116 117/3/117
f 39/1/39 20/2/20 79/3/79
f 138/1/138 99/2/99 80/3/80
f 48/1/48 95/2/95 133/3/133
f 71/1/71 113/2/113 102/3/102
f 97/1/97 13/2/13 45/3/45
f 46/1/46 103/2/103 23/3/23
f 72/1/72 146/2/146 104/3/104
f 46/1/46 2/2/2 60/3/60
f 110/1/110 105/2/105 50/3/50
f 18/1/18 40/2/40 128/3/128
f 98/1/98 66/2/66 78/3/78
f 7/1/7 58/2/58 57/3/57
f 139/1/139 2/2/2 46/3/46
f 31/1/31 106/2/106 117/3/117
f 118/1/118 104/2/104 146/3/146
f 109/1/109 85/2/85 142/3/142
f 32/1/32 128/2/128 40/3/40
f 110/1/110 14/2/14 55/3/55
f 58/1/58 1/2/1 88/3/88
f 52/1/52 36/2/36 77/3/77
f 38/1/38 54/2/54 108/3/108
f 43/1/43 97/2/97 116/3/116
f 134/1/134 64/2/64 3/3/3
f 67/1/67 37/2/37 93/3/93
f 45/1/45 88/2/88 22/3/22
f 31/1/31 117/2/117 100/3/100
f 38/1/38 39/2/39 79/3/79
f 14/1/14 19/2/19 64/3/64
f 66/1/66 10/2/10 78/3/78
f 152/1/152 6/2/6 112/3/112
f 26/1/26 70/2/70 132/3/132
f 32/1/32 44/2/44 99/3/99
f 137/1/137 53/2/53 113/3/113
f 2/1/2 139/2/139 11/3/11
f 36/1/36 16/2/16 146/3/146
f 143/1/143 63/2/63 42/3/42
f 11/1/11 35/2/35 31/3/31
f 114/1/114 12/2/12 84/3/84
f 82/1/82 22/2/22 121/3/121
f 15/1/15 95/2/95 23/3/23
f 4/1/4 1/2/1 87/3/87
f 57/1/57 62/2/62 7/3/7
f 38/1/38 79/2/79 101/3/101
f 46/1/46 77/2/77 34/3/34
f 68/1/68 91/2/91 128/3/128
f 61/1/61 148/2/148 38/3/38
f 123/1/123 40/2/40 111/3/111
f 25/1/25 82/2/82 33/3/33
f 143/1/143 62/2/62 102/3/102
f 50/1/50 63/2/63 5/3/5
f 122/1/122 112/2/112 101/3/101
f 36/1/36 108/2/108 16/3/16
f 144/1/144 30/2/30 35/3/35
f 144/1/144 114/2/114 84/3/84
f 64/1/64 107/2/107 3/3/3
f 134/1/134 147/2/147 64/3/64
f 119/1/119 87/2/87 135/3/135
f 32/1/32 40/2/40 44/3/44
f 71/1/71 62/2/62 140/3/140
f 149/1/149 128/2/128 47/3/47
f 122/1/122 152/2/152 112/3/112
f 37/1/37 41/2/41 83/3/83
f 68/1/68 103/2/103 91/3/91
f 23/1/23 73/2/73 46/3/46
f 12/1/12 18/2/18 91/3/91
f 55/1/55 1/2/1 4/3/4
f 95/1/95 15/2/15 81/3/81
f 103/1/103 46/2/46 34/3/34
f 60/1/60 145/2/145 25/3/25
f 152/1/152 132/2/132 70/3/70
f 6/1/6 65/2/65 76/3/76
f 143/1/143 17/2/17 63/3/63
f 53/1/53 141/2/141 8/3/8
f 60/1/60 33/2/33 86/3/86
f 85/1/85 49/2/49 131/3/131
f 8/1/8 141/2/141 104/3/104
f 79/1/79 20/2/20 122/3/122
f 74/1/74 9/2/9 52/3/52
f 40/1/40 133/2/133 95/3/95
f 130/1/130 29/2/29 48/3/48
f 115/1/115 127/2/127 120/3/120
f 56/1/56 62/2/62 129/3/129
f 81/1/81 80/2/80 99/3/99
f 30/1/30 144/2/144 84/3/84
f 101/1/101 79/2/79 122/3/122
f 39/1/39 148/2/148 19/3/19
f 78/1/78 10/2/10 49/3/49
f 96/1/96 112/2/112 118/3/118
f 124/1/124 34/2/34 77/3/77
f 49/1/49 85/2/85 78/3/78
f 11/1/11 136/2/136 27/3/27
f 120/1/120 127/2/127 139/3/139
f 132/1/132 122/2/122 20/3/20
f 94/1/94 19/2/19 148/3/148
f 116/1/116 28/2/28 100/3/100
f 28/1/28 97/2/97 82/3/82
f 50/1/50 14/2/14 110/3/110
f 25/1/25 145/2/145 28/3/28
f 51/1/51 132/2/132 20/3/20
f 110/1/110 119/2/119 105/3/105
f 60/1/60 86/2/86 77/3/77
f 75/1/75 140/2/140 117/3/117
f 33/1/33 82/2/82 121/3/121
f 93/1/93 70/2/70 21/3/21
f 142/1/142 106/2/106 109/3/109
f 59/1/59 48/2/48 133/3/133
f 10/1/10 34/2/34 124/3/124
f 15/1/15 23/2/23 149/3/149
f 73/1/73 48/2/48 29/3/29
f 119/1/119 135/2/135 105/3/105
f 58/1/58 42/2/42 125/3/125
f 74/1/74 107/2/107 64/3/64
f 102/1/102 113/2/113 67/3/67
f 125/1/125 105/2/105 135/3/135
f 1/1/1 55/2/55 147/3/147
f 139/1/139 136/2/136 11/3/11
f 101/1/101 96/2/96 54/3/54
f 97/1/97 43/2/43 13/3/13
f 137/1/137 113/2/113 75/3/75
f 90/1/90 57/2/57 88/3/88
f 18/1/18 12/2/12 111/3/111
f 101/1/101 112/2/112 96/3/96
f 37/1/37 83/2/83 93/3/93
f 106/1/106 98/2/98 109/3/109
f 98/1/98 31/2/31 30/3/30
f 68/1/68 23/2/23 103/3/103
f 144/1/144 35/2/35 24/3/24
f 141/1/141 72/2/72 104/3/104
f 104/1/104 118/2/118 112/3/112
f 140/1/140 75/2/75 113/3/113
f 93/1/93 6/2/6 70/3/70
f 106/1/106 75/2/75 117/3/117
f 66/1/66 12/2/12 91/3/91
f 60/1/60 25/2/25 33/3/33
f 1/1/1 147/2/147 134/3/134
f 3/1/3 86/2/86 33/3/33
f 40/1/40 95/2/95 44/3/44
f 66/1/66 98/2/98 84/3/84
f 137/1/137 141/2/141 53/3/53
f 6/1/6 152/2/152 70/3/70
f 5/1/5 26/2/26 51/3/51
f 150/1/150 63/2/63 21/3/21
f 135/1/135 87/2/87 125/3/125
f 48/1/48 59/2/59 130/3/130
f 55/1/55 119/2/119 110/3/110
f 14/1/14 64/2/64 147/3/147
f 78/1/78 109/2/109 98/3/98
f 9/1/9 74/2/74 94/3/94
f 7/1/7 143/2/143 42/3/42
f 52/1/52 77/2/77 86/3/86
f 22/1/22 88/2/88 1/3/1
f 35/1/35 30/2/30 31/3/31
f 46/1/46 73/2/73 139/3/139
f 16/1/16 108/2/108 54/3/54
f 17/1/17 67/2/67 93/3/93
f 69/1/69 139/2/139 73/3/73
f 5/1/5 20/2/20 50/3/50
f 144/1/144 24/2/24 114/3/114
f 145/1/145 100/2/100 28/3/28
f 80/1/80 15/2/15 149/3/149
f 103/1/103 10/2/10 66/3/66
f 17/1/17 93/2/93 21/3/21
f 2/1/2 11/2/11 31/3/31
f 111/1/111 12/2/12 114/3/114
f 95/1/95 48/2/48 73/3/73
f 36/1/36 52/2/52 9/3/9
f 47/1/47 138/2/138 80/3/80
f 98/1/98 30/2/30 84/3/84
f 78/1/78 85/2/85 109/3/109
f 150/1/150 21/2/21 26/3/26
f 116/1/116 97/2/97 28/3/28
f 3/1/3 33/2/33 121/3/121
f 98/1/98 106/2/106 31/3/31
f 86/1/86 107/2/107 52/3/52
f 22/1/22 82/2/82 45/3/45
f 83/1/83 41/2/41 8/3/8
f 11/1/11 27/2/27 35/3/35
f 116/1/116 100/2/100 117/3/117
f 136/1/136 139/2/139 127/3/127
f 107/1/107 86/2/86 3/3/3
f 54/1/54 38/2/38 101/3/101
f 19/1/19 14/2/14 50/3/50
f 27/1/27 24/2/24 35/3/35
f 71/1/71 140/2/140 113/3/113
f 82/1/82 97/2/97 45/3/45
f 76/1/76 104/2/104 112/3/112
f 20/1/20 5/2/5 51/3/51
f 76/1/76 92/2/92 104/3/104
f 31/1/31 100/2/100 2/3/2
f 142/1/142 85/2/85 131/3/131
f 34/1/34 10/2/10 103/3/103
f 20/1/20 19/2/19 50/3/50
f 62/1/62 57/2/57 129/3/129
f 19/1/19 20/2/20 39/3/39
f 125/1/125 87/2/87 58/3/58
f 73/1/73 23/2/23 95/3/95
f 40/1/40 123/2/123 133/3/133
f 32/1/32 47/2/47 128/3/128
f 142/1/142 131/2/131 141/3/141
f 90/1/90 88/2/88 13/3/13
f 67/1/67 143/2/143 102/3/102
f 43/1/43 56/2/56 129/3/129
f 1/1/1 134/2/134 22/3/22
f 66/1/66 91/2/91 103/3/103
f 150/1/150 26/2/26 5/3/5
f 14/1/14 147/2/147 55/3/55
f 140/1/140 43/2/43 116/3/116
f 122/1/122 132/2/132 152/3/152
f 63/1/63 105/2/105 125/3/125
f 61/1/61 94/2/94 148/3/148
f 133/1/133 136/2/136 127/3/127
f 124/1/124 72/2/72 126/3/126
f 118/1/118 146/2/146 16/3/16
f 32/1/32 99/2/99 138/3/138
f 73/1/73 29/2/29 69/3/69
f 131/1/131 72/2/72 141/3/141
f 81/1/81 99/2/99 44/3/44
f 124/1/124 36/2/36 72/3/72
f 55/1/55 4/2/4 119/3/119
f 76/1/76 112/2/112 6/3/6
f 126/1/126 72/2/72 131/3/131
f 64/1/64 19/2/19 74/3/74
f 37/1/37 67/2/67 89/3/89
f 63/1/63 125/2/125 42/3/42
f 137/1/137 142/2/142 141/3/141
f 15/1/15 80/2/80 81/3/81
f 83/1/83 76/2/76 65/3/65
f 108/1/108 9/2/9 61/3/61
f 90/1/90 43/2/43 129/3/129
f 71/1/71 102/2/102 62/3/62
f 127/1/127 115/2/115 59/3/59
f 3/1/3 121/2/121 134/3/134
f 41/1/41 53/2/53 8/3/8
f 26/1/26 21/2/21 70/3/70
f 123/1/123 111/2/111 114/3/114
f 8/1/8 104/2/104 92/3/92
f 54/1/54 96/2/96 16/3/16
f 47/1/47 80/2/80 149/3/149
f 120/1/120 151/2/151 115/3/115
f 84/1/84 12/2/12 66/3/66
f 77/1/77 46/2/46 60/3/60
f 94/1/94 74/2/74 19/3/19
f 120/1/120 139/2/139 69/3/69
# 300 faces, 3 coords texture

# End of File
