ply
format ascii 1.0
element vertex 20
property float x
property float y
property float z
end_header
-0.0311279 0.168264 -0.00654632
0.0233607 0.0713858 0.0478141
-0.0623474 0.166249 -0.0485903
0.0123335 0.0581189 -0.0294366
-0.0628061 0.0896011 -0.0190246
-0.0705096 0.145613 0.0431794
-0.0556881 0.123137 -0.00801327
-0.0161996 0.0386499 0.0314325
0.0226855 0.103953 -0.0180758
-0.0435004 0.0424369 0.0431009
-0.00849151 0.104452 0.0437135
0.0387554 0.108357 0.00416438
-0.0527297 0.0738092 -0.0169322
-0.0261065 0.0944666 -0.0262366
-0.0331932 0.0348891 0.047012
-0.0417084 0.0681156 -0.0160245
-0.0708734 0.116483 -0.00801313
-0.0762012 0.149986 -0.0138757
-0.0514117 0.134659 0.0288827
-0.0895811 0.137877 0.0241855