ply
format ascii 1.0
element vertex 218
property float x
property float y
property float z
end_header
-79.3843 -88.5003 0
84.1217 23.4656 0
54.7002 -158.761 0
81.6945 -147.03 0
-99.611 -44.8058 0
-100.156 2.06982 0
-99.9471 62.6965 0
-103.542 -39.6115 0
107.021 -9.4488 0
-84.9468 -52.8094 0
116.148 -83.1307 0
93.5701 15.8376 0
119.193 -41.5834 0
43.8125 109.728 0
-110.669 2.32232 0
-98.7095 -45.6162 0
51.3835 97.5082 0
39.3495 125.118 0
82.5365 25.697 0
-115.138 1.29346 0
-114.567 -19.7279 0
119.773 -43.6658 0
-99.5632 24.8773 0
-70.9338 -112.004 0
107.209 -9.85321 0
-105.803 -34.9332 0
-83.2631 -70.3404 0
42.6734 112.756 0
-61.5618 -128.321 0
-109.983 2.1782 0
7.62723 -162.446 0
54.5769 94.4625 0
82.2955 58.8214 0
39.0993 126.873 0
37.7962 155.13 0
49.4095 99.8872 0
-98.5714 34.0014 0
92.0704 16.5958 0
79.3674 34.5696 0
79.3459 47.2482 0
-94.3094 43.2083 0
-34.0024 86.7113 0
-94.7288 42.7689 0
84.5769 22.9318 0
-100.462 1.9269 0
92.7955 -136.915 0
-68.3862 -117.916 0
-27.497 114.163 0
121.46 -57.0995 0
-97.9808 38.2383 0
-28.8904 -154.247 0
38.3066 134.975 0
-76.0474 -98.545 0
81.4983 55.4615 0
59.9235 -157.308 0
5.28491 -162.335 0
46.2085 104.434 0
-87.948 78.103 0
117.466 -35.0931 0
-98.223 8.18649 0
-112.452 -23.3521 0
-119.538 -8.69981 0
-113.579 1.4058 0
-92.6047 75.335 0
-87.006 78.5357 0
-59.4042 -131.127 0
-84.0336 -54.2237 0
-83.967 -54.9734 0
-71.608 78.5494 0
-108.828 -30.1109 0
-94.2159 44.1597 0
80.0723 70.6352 0
-99.8168 9.6255 0
-98.7108 -44.7435 0
-86.0002 -51.5545 0
-114.376 -18.7678 0
82.4759 58.5292 0
-97.9017 38.3474 0
-4.41944 -161.336 0
-94.5374 46.0621 0
62.7685 -156.386 0
-96.4875 30.184 0
109.66 -102.232 0
-97.648 68.5102 0
88.2164 19.6611 0
-33.001 90.1753 0
-98.5097 33.5773 0
-120.817 -4.7806 0
-96.9312 28.6523 0
-116.356 0.862934 0
41.1915 -161.378 0
38.3727 148.537 0
120.402 -45.8559 0
45.4865 105.978 0
-1.13336 -161.815 0
-99.0517 -45.1207 0
-97.9454 8.6284 0
-15.4725 -158.888 0
84.2073 23.4228 0
-97.4584 5.79799 0
-101.696 18.8092 0
-83.0816 78.7016 0
120.037 -64.1678 0
-104.455 1.54906 0
-71.444 -110.999 0
79.3805 35.4688 0
114.464 -28.3778 0
46.9015 103.35 0
-115.214 1.00129 0
-94.6694 46.5774 0
103.509 -1.7838 0
109.879 -17.2369 0
-100.554 20.4015 0
116.736 -33.4523 0
120.823 -47.2311 0
-98.9489 66.1942 0
118.308 -74.9177 0
38.5781 130.342 0
37.5383 158.79 0
-99.4799 -44.277 0
-101.482 1.35763 0
-98.1283 32.5246 0
-74.6108 -103.886 0
-97.4135 38.9915 0
-56.0383 -134.636 0
-98.3699 26.4879 0
-33.3237 89.1347 0
44.1995 -160.902 0
-98.2641 51.6848 0
79.3891 40.0297 0
-97.941 -45.983 0
-25.0197 143.733 0
49.4915 99.7582 0
98.7228 8.67933 0
40.7282 119.097 0
-117.69 0.316172 0
-60.4236 -129.759 0
-23.8234 133.733 0
-99.6056 57.1452 0
-94.385 45.9533 0
39.272 125.054 0
-97.4286 39.0173 0
-112.133 1.81472 0
-32.0397 97.0858 0
-84.2201 79.0547 0
-97.4298 69.1388 0
-107.171 1.8718 0
83.5226 66.5419 0
-96.4239 29.584 0
-96.0395 71.6216 0
-106.839 -34.4883 0
-97.1537 -46.3153 0
-119.61 -1.27251 0
-32.4463 93.624 0
100.199 -124.336 0
-114.637 1.38622 0
78.6988 71.9832 0
-95.1106 47.2927 0
115.372 -30.2691 0
82.3221 58.4794 0
-100.804 10.9694 0
79.3365 46.436 0
-102.223 1.2057 0
-100.089 24.1649 0
-88.0903 -51.2935 0
49.6545 -159.896 0
-84.3429 -53.7591 0
31.5651 -162.497 0
-96.8057 48.8641 0
100.082 6.18433 0
-101.455 13.0917 0
-28.8349 108.708 0
-103.497 1.39009 0
68.1425 -154.342 0
-97.8022 4.46146 0
32.7541 -162.438 0
-92.8411 74.8449 0
57.5935 91.6712 0
89.4099 18.5693 0
-119.854 -9.57221 0
67.6928 82.3833 0
71.3591 -152.903 0
-99.9781 2.2055 0
-97.9115 7.4438 0
45.4765 105.803 0
50.7709 98.3175 0
-65.1421 78.7007 0
83.517 64.2068 0
-94.2154 43.6211 0
-34.1948 87.0829 0
39.1585 -161.668 0
-46.9652 80.427 0
-111.708 -23.002 0
77.0019 -149.93 0
82.4055 25.9197 0
79.5844 32.7165 0
79.3655 33.9788 0
73.9662 -151.598 0
-31.9699 98.3616 0
121.889 -57.5861 0
-110.574 -26.8527 0
12.2228 -162.571 0
-113.246 1.99104 0
83.2643 63.3967 0
-90.1143 -50.1383 0
-26.0186 146.266 0
38.3451 147.98 0
-84.0469 -53.5022 0
-72.5518 -108.695 0
62.7206 87.2431 0
-99.4718 25.2239 0
79.453 45.3907 0
37.7605 157.536 0
121.812 -54.0293 0
122.074 -54.2389 0
96.4845 11.8701 0
-107.035 -33.6357 0
38.417 139.581 0
